<svg width="100" height="100" viewBox="0 0 100 100" fill="none" xmlns="http://www.w3.org/2000/svg">
<path d="M57 10L81 24C85.6667 26.6667 88 30.6667 88 36V64C88 69.3333 85.6667 73.3333 81 76L57 90C52.3333 92.6667 47.6667 92.6667 43 90L19 76C14.3333 73.3333 12 69.3333 12 64V36C12 30.6667 14.3333 26.6667 19 24L43 10C47.6667 7.33333 52.3333 7.33333 57 10Z" fill="#131721"/>
<path d="M43 46L28 37C23.3333 34.3333 23.3333 31.6667 28 29L43 20C47.6667 17.3333 52.3333 17.3333 57 20L72 29C76.6667 31.6667 79 35.6667 79 41V59C79 64.3333 76.6667 68.3333 72 71L57 80C52.3333 82.6667 50 81.3333 50 76V58C50 52.6667 47.6667 48.6667 43 46Z" fill="#F0A500"/>
</svg>
